<?xml version="1.0" encoding="UTF-8" standalone="no"?><!DOCTYPE svg PUBLIC "-//W3C//DTD SVG 1.1//EN" "http://www.w3.org/Graphics/SVG/1.1/DTD/svg11.dtd"><svg width="100%" height="100%" viewBox="0 0 1280 800" version="1.1" xmlns="http://www.w3.org/2000/svg" xmlns:xlink="http://www.w3.org/1999/xlink" xml:space="preserve" xmlns:serif="http://www.serif.com/" style="fill-rule:evenodd;clip-rule:evenodd;stroke-linejoin:round;stroke-miterlimit:1.41421;"><path d="M564.701,111.5l30.093,-102.5l72.08,12.016l-22.798,90.484l91.777,0l0,57.897l-51.613,0l0,311.389l579.76,2c-20.726,119.886 -62.269,305.929 -181.078,307.52l-743.01,1.694c-174.613,-36.835 -271.809,-190.687 -331.912,-311.214l372.461,0l0,-311.389l-47.189,0l0,-57.897l231.429,0Zm39.907,87.627c23.196,0 42.028,19.282 42.028,43.032c0,23.749 -18.832,43.031 -42.028,43.031c-23.195,0 -42.027,-19.282 -42.027,-43.031c0,-23.75 18.832,-43.032 42.027,-43.032Zm-144.516,0c23.196,0 42.028,19.282 42.028,43.032c0,23.749 -18.832,43.031 -42.028,43.031c-23.196,0 -42.027,-19.282 -42.027,-43.031c0,-23.75 18.831,-43.032 42.027,-43.032Z" style="fill:#fff;"/></svg>